<?xml version="1.0" encoding="utf-8" standalone="no"?>
<!DOCTYPE svg PUBLIC "-//W3C//DTD SVG 1.1//EN"
  "http://www.w3.org/Graphics/SVG/1.1/DTD/svg11.dtd">
<svg xmlns:xlink="http://www.w3.org/1999/xlink" width="712.914375pt" height="424.825312pt" viewBox="0 0 712.914375 424.825312" xmlns="http://www.w3.org/2000/svg" version="1.1">
 <metadata>
  <rdf:RDF xmlns:dc="http://purl.org/dc/elements/1.1/" xmlns:cc="http://creativecommons.org/ns#" xmlns:rdf="http://www.w3.org/1999/02/22-rdf-syntax-ns#">
   <cc:Work>
    <dc:type rdf:resource="http://purl.org/dc/dcmitype/StillImage"/>
    <dc:date>2026-03-26T18:03:12.200900</dc:date>
    <dc:format>image/svg+xml</dc:format>
    <dc:creator>
     <cc:Agent>
      <dc:title>Matplotlib v3.8.2, https://matplotlib.org/</dc:title>
     </cc:Agent>
    </dc:creator>
   </cc:Work>
  </rdf:RDF>
 </metadata>
 <defs>
  <style type="text/css">*{stroke-linejoin: round; stroke-linecap: butt}</style>
 </defs>
 <g id="figure_1">
  <g id="patch_1">
   <path d="M 0 424.825312 
L 712.914375 424.825312 
L 712.914375 0 
L 0 0 
z
" style="fill: #ffffff"/>
  </g>
  <g id="axes_1">
   <g id="patch_2">
    <path d="M 48.8975 383.397812 
L 696.1725 383.397812 
L 696.1725 32.837812 
L 48.8975 32.837812 
z
" style="fill: #ffffff"/>
   </g>
   <g id="matplotlib.axis_1">
    <g id="xtick_1">
     <g id="line2d_1">
      <path d="M 48.8975 383.397812 
L 48.8975 32.837812 
" clip-path="url(#p7238537fca)" style="fill: none; stroke-dasharray: 1.85,0.8; stroke-dashoffset: 0; stroke: #b0b0b0; stroke-opacity: 0.3; stroke-width: 0.5"/>
     </g>
     <g id="line2d_2">
      <defs>
       <path id="m7348f2d7ae" d="M 0 0 
L 0 3.5 
" style="stroke: #000000; stroke-width: 0.8"/>
      </defs>
      <g>
       <use xlink:href="#m7348f2d7ae" x="48.8975" y="383.397812" style="stroke: #000000; stroke-width: 0.8"/>
      </g>
     </g>
     <g id="text_1">
      <!-- 0.0 -->
      <g transform="translate(39.355625 399.515937) scale(0.12 -0.12)">
       <defs>
        <path id="DejaVuSans-30" d="M 2034 4250 
Q 1547 4250 1301 3770 
Q 1056 3291 1056 2328 
Q 1056 1369 1301 889 
Q 1547 409 2034 409 
Q 2525 409 2770 889 
Q 3016 1369 3016 2328 
Q 3016 3291 2770 3770 
Q 2525 4250 2034 4250 
z
M 2034 4750 
Q 2819 4750 3233 4129 
Q 3647 3509 3647 2328 
Q 3647 1150 3233 529 
Q 2819 -91 2034 -91 
Q 1250 -91 836 529 
Q 422 1150 422 2328 
Q 422 3509 836 4129 
Q 1250 4750 2034 4750 
z
" transform="scale(0.015625)"/>
        <path id="DejaVuSans-2e" d="M 684 794 
L 1344 794 
L 1344 0 
L 684 0 
L 684 794 
z
" transform="scale(0.015625)"/>
       </defs>
       <use xlink:href="#DejaVuSans-30"/>
       <use xlink:href="#DejaVuSans-2e" x="63.623047"/>
       <use xlink:href="#DejaVuSans-30" x="95.410156"/>
      </g>
     </g>
    </g>
    <g id="xtick_2">
     <g id="line2d_3">
      <path d="M 178.3525 383.397812 
L 178.3525 32.837812 
" clip-path="url(#p7238537fca)" style="fill: none; stroke-dasharray: 1.85,0.8; stroke-dashoffset: 0; stroke: #b0b0b0; stroke-opacity: 0.3; stroke-width: 0.5"/>
     </g>
     <g id="line2d_4">
      <g>
       <use xlink:href="#m7348f2d7ae" x="178.3525" y="383.397812" style="stroke: #000000; stroke-width: 0.8"/>
      </g>
     </g>
     <g id="text_2">
      <!-- 0.2 -->
      <g transform="translate(168.810625 399.515937) scale(0.12 -0.12)">
       <defs>
        <path id="DejaVuSans-32" d="M 1228 531 
L 3431 531 
L 3431 0 
L 469 0 
L 469 531 
Q 828 903 1448 1529 
Q 2069 2156 2228 2338 
Q 2531 2678 2651 2914 
Q 2772 3150 2772 3378 
Q 2772 3750 2511 3984 
Q 2250 4219 1831 4219 
Q 1534 4219 1204 4116 
Q 875 4013 500 3803 
L 500 4441 
Q 881 4594 1212 4672 
Q 1544 4750 1819 4750 
Q 2544 4750 2975 4387 
Q 3406 4025 3406 3419 
Q 3406 3131 3298 2873 
Q 3191 2616 2906 2266 
Q 2828 2175 2409 1742 
Q 1991 1309 1228 531 
z
" transform="scale(0.015625)"/>
       </defs>
       <use xlink:href="#DejaVuSans-30"/>
       <use xlink:href="#DejaVuSans-2e" x="63.623047"/>
       <use xlink:href="#DejaVuSans-32" x="95.410156"/>
      </g>
     </g>
    </g>
    <g id="xtick_3">
     <g id="line2d_5">
      <path d="M 307.8075 383.397812 
L 307.8075 32.837812 
" clip-path="url(#p7238537fca)" style="fill: none; stroke-dasharray: 1.85,0.8; stroke-dashoffset: 0; stroke: #b0b0b0; stroke-opacity: 0.3; stroke-width: 0.5"/>
     </g>
     <g id="line2d_6">
      <g>
       <use xlink:href="#m7348f2d7ae" x="307.8075" y="383.397812" style="stroke: #000000; stroke-width: 0.8"/>
      </g>
     </g>
     <g id="text_3">
      <!-- 0.4 -->
      <g transform="translate(298.265625 399.515937) scale(0.12 -0.12)">
       <defs>
        <path id="DejaVuSans-34" d="M 2419 4116 
L 825 1625 
L 2419 1625 
L 2419 4116 
z
M 2253 4666 
L 3047 4666 
L 3047 1625 
L 3713 1625 
L 3713 1100 
L 3047 1100 
L 3047 0 
L 2419 0 
L 2419 1100 
L 313 1100 
L 313 1709 
L 2253 4666 
z
" transform="scale(0.015625)"/>
       </defs>
       <use xlink:href="#DejaVuSans-30"/>
       <use xlink:href="#DejaVuSans-2e" x="63.623047"/>
       <use xlink:href="#DejaVuSans-34" x="95.410156"/>
      </g>
     </g>
    </g>
    <g id="xtick_4">
     <g id="line2d_7">
      <path d="M 437.2625 383.397812 
L 437.2625 32.837812 
" clip-path="url(#p7238537fca)" style="fill: none; stroke-dasharray: 1.85,0.8; stroke-dashoffset: 0; stroke: #b0b0b0; stroke-opacity: 0.3; stroke-width: 0.5"/>
     </g>
     <g id="line2d_8">
      <g>
       <use xlink:href="#m7348f2d7ae" x="437.2625" y="383.397812" style="stroke: #000000; stroke-width: 0.8"/>
      </g>
     </g>
     <g id="text_4">
      <!-- 0.6 -->
      <g transform="translate(427.720625 399.515937) scale(0.12 -0.12)">
       <defs>
        <path id="DejaVuSans-36" d="M 2113 2584 
Q 1688 2584 1439 2293 
Q 1191 2003 1191 1497 
Q 1191 994 1439 701 
Q 1688 409 2113 409 
Q 2538 409 2786 701 
Q 3034 994 3034 1497 
Q 3034 2003 2786 2293 
Q 2538 2584 2113 2584 
z
M 3366 4563 
L 3366 3988 
Q 3128 4100 2886 4159 
Q 2644 4219 2406 4219 
Q 1781 4219 1451 3797 
Q 1122 3375 1075 2522 
Q 1259 2794 1537 2939 
Q 1816 3084 2150 3084 
Q 2853 3084 3261 2657 
Q 3669 2231 3669 1497 
Q 3669 778 3244 343 
Q 2819 -91 2113 -91 
Q 1303 -91 875 529 
Q 447 1150 447 2328 
Q 447 3434 972 4092 
Q 1497 4750 2381 4750 
Q 2619 4750 2861 4703 
Q 3103 4656 3366 4563 
z
" transform="scale(0.015625)"/>
       </defs>
       <use xlink:href="#DejaVuSans-30"/>
       <use xlink:href="#DejaVuSans-2e" x="63.623047"/>
       <use xlink:href="#DejaVuSans-36" x="95.410156"/>
      </g>
     </g>
    </g>
    <g id="xtick_5">
     <g id="line2d_9">
      <path d="M 566.7175 383.397812 
L 566.7175 32.837812 
" clip-path="url(#p7238537fca)" style="fill: none; stroke-dasharray: 1.85,0.8; stroke-dashoffset: 0; stroke: #b0b0b0; stroke-opacity: 0.3; stroke-width: 0.5"/>
     </g>
     <g id="line2d_10">
      <g>
       <use xlink:href="#m7348f2d7ae" x="566.7175" y="383.397812" style="stroke: #000000; stroke-width: 0.8"/>
      </g>
     </g>
     <g id="text_5">
      <!-- 0.8 -->
      <g transform="translate(557.175625 399.515937) scale(0.12 -0.12)">
       <defs>
        <path id="DejaVuSans-38" d="M 2034 2216 
Q 1584 2216 1326 1975 
Q 1069 1734 1069 1313 
Q 1069 891 1326 650 
Q 1584 409 2034 409 
Q 2484 409 2743 651 
Q 3003 894 3003 1313 
Q 3003 1734 2745 1975 
Q 2488 2216 2034 2216 
z
M 1403 2484 
Q 997 2584 770 2862 
Q 544 3141 544 3541 
Q 544 4100 942 4425 
Q 1341 4750 2034 4750 
Q 2731 4750 3128 4425 
Q 3525 4100 3525 3541 
Q 3525 3141 3298 2862 
Q 3072 2584 2669 2484 
Q 3125 2378 3379 2068 
Q 3634 1759 3634 1313 
Q 3634 634 3220 271 
Q 2806 -91 2034 -91 
Q 1263 -91 848 271 
Q 434 634 434 1313 
Q 434 1759 690 2068 
Q 947 2378 1403 2484 
z
M 1172 3481 
Q 1172 3119 1398 2916 
Q 1625 2713 2034 2713 
Q 2441 2713 2670 2916 
Q 2900 3119 2900 3481 
Q 2900 3844 2670 4047 
Q 2441 4250 2034 4250 
Q 1625 4250 1398 4047 
Q 1172 3844 1172 3481 
z
" transform="scale(0.015625)"/>
       </defs>
       <use xlink:href="#DejaVuSans-30"/>
       <use xlink:href="#DejaVuSans-2e" x="63.623047"/>
       <use xlink:href="#DejaVuSans-38" x="95.410156"/>
      </g>
     </g>
    </g>
    <g id="xtick_6">
     <g id="line2d_11">
      <path d="M 696.1725 383.397812 
L 696.1725 32.837812 
" clip-path="url(#p7238537fca)" style="fill: none; stroke-dasharray: 1.85,0.8; stroke-dashoffset: 0; stroke: #b0b0b0; stroke-opacity: 0.3; stroke-width: 0.5"/>
     </g>
     <g id="line2d_12">
      <g>
       <use xlink:href="#m7348f2d7ae" x="696.1725" y="383.397812" style="stroke: #000000; stroke-width: 0.8"/>
      </g>
     </g>
     <g id="text_6">
      <!-- 1.0 -->
      <g transform="translate(686.630625 399.515937) scale(0.12 -0.12)">
       <defs>
        <path id="DejaVuSans-31" d="M 794 531 
L 1825 531 
L 1825 4091 
L 703 3866 
L 703 4441 
L 1819 4666 
L 2450 4666 
L 2450 531 
L 3481 531 
L 3481 0 
L 794 0 
L 794 531 
z
" transform="scale(0.015625)"/>
       </defs>
       <use xlink:href="#DejaVuSans-31"/>
       <use xlink:href="#DejaVuSans-2e" x="63.623047"/>
       <use xlink:href="#DejaVuSans-30" x="95.410156"/>
      </g>
     </g>
    </g>
    <g id="text_7">
     <!-- Threshold -->
     <g transform="translate(342.969062 415.129687) scale(0.12 -0.12)">
      <defs>
       <path id="DejaVuSans-54" d="M -19 4666 
L 3928 4666 
L 3928 4134 
L 2272 4134 
L 2272 0 
L 1638 0 
L 1638 4134 
L -19 4134 
L -19 4666 
z
" transform="scale(0.015625)"/>
       <path id="DejaVuSans-68" d="M 3513 2113 
L 3513 0 
L 2938 0 
L 2938 2094 
Q 2938 2591 2744 2837 
Q 2550 3084 2163 3084 
Q 1697 3084 1428 2787 
Q 1159 2491 1159 1978 
L 1159 0 
L 581 0 
L 581 4863 
L 1159 4863 
L 1159 2956 
Q 1366 3272 1645 3428 
Q 1925 3584 2291 3584 
Q 2894 3584 3203 3211 
Q 3513 2838 3513 2113 
z
" transform="scale(0.015625)"/>
       <path id="DejaVuSans-72" d="M 2631 2963 
Q 2534 3019 2420 3045 
Q 2306 3072 2169 3072 
Q 1681 3072 1420 2755 
Q 1159 2438 1159 1844 
L 1159 0 
L 581 0 
L 581 3500 
L 1159 3500 
L 1159 2956 
Q 1341 3275 1631 3429 
Q 1922 3584 2338 3584 
Q 2397 3584 2469 3576 
Q 2541 3569 2628 3553 
L 2631 2963 
z
" transform="scale(0.015625)"/>
       <path id="DejaVuSans-65" d="M 3597 1894 
L 3597 1613 
L 953 1613 
Q 991 1019 1311 708 
Q 1631 397 2203 397 
Q 2534 397 2845 478 
Q 3156 559 3463 722 
L 3463 178 
Q 3153 47 2828 -22 
Q 2503 -91 2169 -91 
Q 1331 -91 842 396 
Q 353 884 353 1716 
Q 353 2575 817 3079 
Q 1281 3584 2069 3584 
Q 2775 3584 3186 3129 
Q 3597 2675 3597 1894 
z
M 3022 2063 
Q 3016 2534 2758 2815 
Q 2500 3097 2075 3097 
Q 1594 3097 1305 2825 
Q 1016 2553 972 2059 
L 3022 2063 
z
" transform="scale(0.015625)"/>
       <path id="DejaVuSans-73" d="M 2834 3397 
L 2834 2853 
Q 2591 2978 2328 3040 
Q 2066 3103 1784 3103 
Q 1356 3103 1142 2972 
Q 928 2841 928 2578 
Q 928 2378 1081 2264 
Q 1234 2150 1697 2047 
L 1894 2003 
Q 2506 1872 2764 1633 
Q 3022 1394 3022 966 
Q 3022 478 2636 193 
Q 2250 -91 1575 -91 
Q 1294 -91 989 -36 
Q 684 19 347 128 
L 347 722 
Q 666 556 975 473 
Q 1284 391 1588 391 
Q 1994 391 2212 530 
Q 2431 669 2431 922 
Q 2431 1156 2273 1281 
Q 2116 1406 1581 1522 
L 1381 1569 
Q 847 1681 609 1914 
Q 372 2147 372 2553 
Q 372 3047 722 3315 
Q 1072 3584 1716 3584 
Q 2034 3584 2315 3537 
Q 2597 3491 2834 3397 
z
" transform="scale(0.015625)"/>
       <path id="DejaVuSans-6f" d="M 1959 3097 
Q 1497 3097 1228 2736 
Q 959 2375 959 1747 
Q 959 1119 1226 758 
Q 1494 397 1959 397 
Q 2419 397 2687 759 
Q 2956 1122 2956 1747 
Q 2956 2369 2687 2733 
Q 2419 3097 1959 3097 
z
M 1959 3584 
Q 2709 3584 3137 3096 
Q 3566 2609 3566 1747 
Q 3566 888 3137 398 
Q 2709 -91 1959 -91 
Q 1206 -91 779 398 
Q 353 888 353 1747 
Q 353 2609 779 3096 
Q 1206 3584 1959 3584 
z
" transform="scale(0.015625)"/>
       <path id="DejaVuSans-6c" d="M 603 4863 
L 1178 4863 
L 1178 0 
L 603 0 
L 603 4863 
z
" transform="scale(0.015625)"/>
       <path id="DejaVuSans-64" d="M 2906 2969 
L 2906 4863 
L 3481 4863 
L 3481 0 
L 2906 0 
L 2906 525 
Q 2725 213 2448 61 
Q 2172 -91 1784 -91 
Q 1150 -91 751 415 
Q 353 922 353 1747 
Q 353 2572 751 3078 
Q 1150 3584 1784 3584 
Q 2172 3584 2448 3432 
Q 2725 3281 2906 2969 
z
M 947 1747 
Q 947 1113 1208 752 
Q 1469 391 1925 391 
Q 2381 391 2643 752 
Q 2906 1113 2906 1747 
Q 2906 2381 2643 2742 
Q 2381 3103 1925 3103 
Q 1469 3103 1208 2742 
Q 947 2381 947 1747 
z
" transform="scale(0.015625)"/>
      </defs>
      <use xlink:href="#DejaVuSans-54"/>
      <use xlink:href="#DejaVuSans-68" x="61.083984"/>
      <use xlink:href="#DejaVuSans-72" x="124.462891"/>
      <use xlink:href="#DejaVuSans-65" x="163.326172"/>
      <use xlink:href="#DejaVuSans-73" x="224.849609"/>
      <use xlink:href="#DejaVuSans-68" x="276.949219"/>
      <use xlink:href="#DejaVuSans-6f" x="340.328125"/>
      <use xlink:href="#DejaVuSans-6c" x="401.509766"/>
      <use xlink:href="#DejaVuSans-64" x="429.292969"/>
     </g>
    </g>
   </g>
   <g id="matplotlib.axis_2">
    <g id="ytick_1">
     <g id="line2d_13">
      <path d="M 48.8975 383.397812 
L 696.1725 383.397812 
" clip-path="url(#p7238537fca)" style="fill: none; stroke-dasharray: 1.85,0.8; stroke-dashoffset: 0; stroke: #b0b0b0; stroke-opacity: 0.3; stroke-width: 0.5"/>
     </g>
     <g id="line2d_14">
      <defs>
       <path id="m3e47b9327e" d="M 0 0 
L -3.5 0 
" style="stroke: #000000; stroke-width: 0.8"/>
      </defs>
      <g>
       <use xlink:href="#m3e47b9327e" x="48.8975" y="383.397812" style="stroke: #000000; stroke-width: 0.8"/>
      </g>
     </g>
     <g id="text_8">
      <!-- 0.0 -->
      <g transform="translate(22.81375 387.956875) scale(0.12 -0.12)">
       <use xlink:href="#DejaVuSans-30"/>
       <use xlink:href="#DejaVuSans-2e" x="63.623047"/>
       <use xlink:href="#DejaVuSans-30" x="95.410156"/>
      </g>
     </g>
    </g>
    <g id="ytick_2">
     <g id="line2d_15">
      <path d="M 48.8975 313.285812 
L 696.1725 313.285812 
" clip-path="url(#p7238537fca)" style="fill: none; stroke-dasharray: 1.85,0.8; stroke-dashoffset: 0; stroke: #b0b0b0; stroke-opacity: 0.3; stroke-width: 0.5"/>
     </g>
     <g id="line2d_16">
      <g>
       <use xlink:href="#m3e47b9327e" x="48.8975" y="313.285812" style="stroke: #000000; stroke-width: 0.8"/>
      </g>
     </g>
     <g id="text_9">
      <!-- 0.2 -->
      <g transform="translate(22.81375 317.844875) scale(0.12 -0.12)">
       <use xlink:href="#DejaVuSans-30"/>
       <use xlink:href="#DejaVuSans-2e" x="63.623047"/>
       <use xlink:href="#DejaVuSans-32" x="95.410156"/>
      </g>
     </g>
    </g>
    <g id="ytick_3">
     <g id="line2d_17">
      <path d="M 48.8975 243.173812 
L 696.1725 243.173812 
" clip-path="url(#p7238537fca)" style="fill: none; stroke-dasharray: 1.85,0.8; stroke-dashoffset: 0; stroke: #b0b0b0; stroke-opacity: 0.3; stroke-width: 0.5"/>
     </g>
     <g id="line2d_18">
      <g>
       <use xlink:href="#m3e47b9327e" x="48.8975" y="243.173812" style="stroke: #000000; stroke-width: 0.8"/>
      </g>
     </g>
     <g id="text_10">
      <!-- 0.4 -->
      <g transform="translate(22.81375 247.732875) scale(0.12 -0.12)">
       <use xlink:href="#DejaVuSans-30"/>
       <use xlink:href="#DejaVuSans-2e" x="63.623047"/>
       <use xlink:href="#DejaVuSans-34" x="95.410156"/>
      </g>
     </g>
    </g>
    <g id="ytick_4">
     <g id="line2d_19">
      <path d="M 48.8975 173.061812 
L 696.1725 173.061812 
" clip-path="url(#p7238537fca)" style="fill: none; stroke-dasharray: 1.85,0.8; stroke-dashoffset: 0; stroke: #b0b0b0; stroke-opacity: 0.3; stroke-width: 0.5"/>
     </g>
     <g id="line2d_20">
      <g>
       <use xlink:href="#m3e47b9327e" x="48.8975" y="173.061812" style="stroke: #000000; stroke-width: 0.8"/>
      </g>
     </g>
     <g id="text_11">
      <!-- 0.6 -->
      <g transform="translate(22.81375 177.620875) scale(0.12 -0.12)">
       <use xlink:href="#DejaVuSans-30"/>
       <use xlink:href="#DejaVuSans-2e" x="63.623047"/>
       <use xlink:href="#DejaVuSans-36" x="95.410156"/>
      </g>
     </g>
    </g>
    <g id="ytick_5">
     <g id="line2d_21">
      <path d="M 48.8975 102.949812 
L 696.1725 102.949812 
" clip-path="url(#p7238537fca)" style="fill: none; stroke-dasharray: 1.85,0.8; stroke-dashoffset: 0; stroke: #b0b0b0; stroke-opacity: 0.3; stroke-width: 0.5"/>
     </g>
     <g id="line2d_22">
      <g>
       <use xlink:href="#m3e47b9327e" x="48.8975" y="102.949812" style="stroke: #000000; stroke-width: 0.8"/>
      </g>
     </g>
     <g id="text_12">
      <!-- 0.8 -->
      <g transform="translate(22.81375 107.508875) scale(0.12 -0.12)">
       <use xlink:href="#DejaVuSans-30"/>
       <use xlink:href="#DejaVuSans-2e" x="63.623047"/>
       <use xlink:href="#DejaVuSans-38" x="95.410156"/>
      </g>
     </g>
    </g>
    <g id="ytick_6">
     <g id="line2d_23">
      <path d="M 48.8975 32.837812 
L 696.1725 32.837812 
" clip-path="url(#p7238537fca)" style="fill: none; stroke-dasharray: 1.85,0.8; stroke-dashoffset: 0; stroke: #b0b0b0; stroke-opacity: 0.3; stroke-width: 0.5"/>
     </g>
     <g id="line2d_24">
      <g>
       <use xlink:href="#m3e47b9327e" x="48.8975" y="32.837812" style="stroke: #000000; stroke-width: 0.8"/>
      </g>
     </g>
     <g id="text_13">
      <!-- 1.0 -->
      <g transform="translate(22.81375 37.396875) scale(0.12 -0.12)">
       <use xlink:href="#DejaVuSans-31"/>
       <use xlink:href="#DejaVuSans-2e" x="63.623047"/>
       <use xlink:href="#DejaVuSans-30" x="95.410156"/>
      </g>
     </g>
    </g>
    <g id="text_14">
     <!-- Metric Value -->
     <g transform="translate(16.318125 245.155625) rotate(-90) scale(0.12 -0.12)">
      <defs>
       <path id="DejaVuSans-4d" d="M 628 4666 
L 1569 4666 
L 2759 1491 
L 3956 4666 
L 4897 4666 
L 4897 0 
L 4281 0 
L 4281 4097 
L 3078 897 
L 2444 897 
L 1241 4097 
L 1241 0 
L 628 0 
L 628 4666 
z
" transform="scale(0.015625)"/>
       <path id="DejaVuSans-74" d="M 1172 4494 
L 1172 3500 
L 2356 3500 
L 2356 3053 
L 1172 3053 
L 1172 1153 
Q 1172 725 1289 603 
Q 1406 481 1766 481 
L 2356 481 
L 2356 0 
L 1766 0 
Q 1100 0 847 248 
Q 594 497 594 1153 
L 594 3053 
L 172 3053 
L 172 3500 
L 594 3500 
L 594 4494 
L 1172 4494 
z
" transform="scale(0.015625)"/>
       <path id="DejaVuSans-69" d="M 603 3500 
L 1178 3500 
L 1178 0 
L 603 0 
L 603 3500 
z
M 603 4863 
L 1178 4863 
L 1178 4134 
L 603 4134 
L 603 4863 
z
" transform="scale(0.015625)"/>
       <path id="DejaVuSans-63" d="M 3122 3366 
L 3122 2828 
Q 2878 2963 2633 3030 
Q 2388 3097 2138 3097 
Q 1578 3097 1268 2742 
Q 959 2388 959 1747 
Q 959 1106 1268 751 
Q 1578 397 2138 397 
Q 2388 397 2633 464 
Q 2878 531 3122 666 
L 3122 134 
Q 2881 22 2623 -34 
Q 2366 -91 2075 -91 
Q 1284 -91 818 406 
Q 353 903 353 1747 
Q 353 2603 823 3093 
Q 1294 3584 2113 3584 
Q 2378 3584 2631 3529 
Q 2884 3475 3122 3366 
z
" transform="scale(0.015625)"/>
       <path id="DejaVuSans-20" transform="scale(0.015625)"/>
       <path id="DejaVuSans-56" d="M 1831 0 
L 50 4666 
L 709 4666 
L 2188 738 
L 3669 4666 
L 4325 4666 
L 2547 0 
L 1831 0 
z
" transform="scale(0.015625)"/>
       <path id="DejaVuSans-61" d="M 2194 1759 
Q 1497 1759 1228 1600 
Q 959 1441 959 1056 
Q 959 750 1161 570 
Q 1363 391 1709 391 
Q 2188 391 2477 730 
Q 2766 1069 2766 1631 
L 2766 1759 
L 2194 1759 
z
M 3341 1997 
L 3341 0 
L 2766 0 
L 2766 531 
Q 2569 213 2275 61 
Q 1981 -91 1556 -91 
Q 1019 -91 701 211 
Q 384 513 384 1019 
Q 384 1609 779 1909 
Q 1175 2209 1959 2209 
L 2766 2209 
L 2766 2266 
Q 2766 2663 2505 2880 
Q 2244 3097 1772 3097 
Q 1472 3097 1187 3025 
Q 903 2953 641 2809 
L 641 3341 
Q 956 3463 1253 3523 
Q 1550 3584 1831 3584 
Q 2591 3584 2966 3190 
Q 3341 2797 3341 1997 
z
" transform="scale(0.015625)"/>
       <path id="DejaVuSans-75" d="M 544 1381 
L 544 3500 
L 1119 3500 
L 1119 1403 
Q 1119 906 1312 657 
Q 1506 409 1894 409 
Q 2359 409 2629 706 
Q 2900 1003 2900 1516 
L 2900 3500 
L 3475 3500 
L 3475 0 
L 2900 0 
L 2900 538 
Q 2691 219 2414 64 
Q 2138 -91 1772 -91 
Q 1169 -91 856 284 
Q 544 659 544 1381 
z
M 1991 3584 
L 1991 3584 
z
" transform="scale(0.015625)"/>
      </defs>
      <use xlink:href="#DejaVuSans-4d"/>
      <use xlink:href="#DejaVuSans-65" x="86.279297"/>
      <use xlink:href="#DejaVuSans-74" x="147.802734"/>
      <use xlink:href="#DejaVuSans-72" x="187.011719"/>
      <use xlink:href="#DejaVuSans-69" x="228.125"/>
      <use xlink:href="#DejaVuSans-63" x="255.908203"/>
      <use xlink:href="#DejaVuSans-20" x="310.888672"/>
      <use xlink:href="#DejaVuSans-56" x="342.675781"/>
      <use xlink:href="#DejaVuSans-61" x="403.333984"/>
      <use xlink:href="#DejaVuSans-6c" x="464.613281"/>
      <use xlink:href="#DejaVuSans-75" x="492.396484"/>
      <use xlink:href="#DejaVuSans-65" x="555.775391"/>
     </g>
    </g>
   </g>
   <g id="line2d_25">
    <path d="M 48.8975 246.679412 
L 55.435631 246.679412 
L 61.973763 245.992385 
L 68.511894 245.298419 
L 75.050025 245.298419 
L 81.588157 243.889241 
L 88.126288 243.173812 
L 94.664419 240.237184 
L 101.202551 239.483707 
L 107.740682 238.722257 
L 114.278813 237.952706 
L 120.816944 236.38878 
L 127.355076 232.327757 
L 133.893207 229.781633 
L 140.431338 223.493251 
L 146.96947 222.552636 
L 153.507601 218.676849 
L 160.045732 216.668056 
L 166.583864 212.499812 
L 173.121995 209.234246 
L 179.660126 205.841449 
L 186.198258 203.505181 
L 192.736389 196.112333 
L 199.27452 190.836686 
L 205.812652 190.836686 
L 212.350783 186.68069 
L 218.888914 180.852035 
L 225.427045 177.806234 
L 231.965177 177.806234 
L 238.503308 173.061812 
L 245.041439 171.431301 
L 251.579571 158.455146 
L 258.117702 152.687385 
L 264.655833 151.723378 
L 271.193965 143.374749 
L 277.732096 143.374749 
L 284.270227 136.707442 
L 290.808359 127.219351 
L 297.34649 127.219351 
L 303.884621 124.732181 
L 310.422753 119.61009 
L 316.960884 111.534955 
L 323.499015 111.534955 
L 330.037146 108.732245 
L 336.575278 98.327043 
L 343.113409 91.920959 
L 349.65154 85.82944 
L 356.189672 84.139276 
L 362.727803 81.039812 
L 369.265934 73.812358 
L 375.804066 74.351497 
L 382.342197 74.905012 
L 388.880328 66.920035 
L 395.41846 67.400066 
L 401.956591 62.885812 
L 408.494722 62.885812 
L 415.032854 62.885812 
L 421.570985 64.231245 
L 428.109116 59.803966 
L 434.647247 59.803966 
L 441.185379 59.803966 
L 447.72351 55.09559 
L 454.261641 55.09559 
L 460.799773 55.825353 
L 467.337904 56.208479 
L 473.876035 56.604592 
L 480.414167 50.970226 
L 486.952298 45.357812 
L 493.490429 45.585449 
L 500.028561 45.585449 
L 506.566692 46.066492 
L 513.104823 46.066492 
L 519.642955 39.711538 
L 526.181086 39.711538 
L 532.719217 39.849012 
L 539.257348 40.296536 
L 545.79548 40.805085 
L 552.333611 41.184479 
L 558.871742 42.063076 
L 565.409874 42.57559 
L 571.948005 32.837812 
L 578.486136 32.837812 
L 585.024268 32.837812 
L 591.562399 32.837812 
L 598.10053 32.837812 
L 604.638662 32.837812 
L 611.176793 32.837812 
L 617.714924 32.837812 
L 624.253056 32.837812 
L 630.791187 32.837812 
L 637.329318 32.837812 
L 643.867449 32.837812 
L 650.405581 32.837812 
L 656.943712 32.837812 
L 663.481843 32.837812 
L 670.019975 32.837812 
L 676.558106 32.837812 
L 683.096237 32.837812 
" clip-path="url(#p7238537fca)" style="fill: none; stroke: #0173b2; stroke-width: 2; stroke-linecap: square"/>
   </g>
   <g id="line2d_26">
    <path d="M 48.8975 32.837812 
L 55.435631 32.837812 
L 61.973763 32.837812 
L 68.511894 32.837812 
L 75.050025 32.837812 
L 81.588157 32.837812 
L 88.126288 32.837812 
L 94.664419 32.837812 
L 101.202551 32.837812 
L 107.740682 32.837812 
L 114.278813 32.837812 
L 120.816944 32.837812 
L 127.355076 32.837812 
L 133.893207 32.837812 
L 140.431338 32.837812 
L 146.96947 32.837812 
L 153.507601 32.837812 
L 160.045732 32.837812 
L 166.583864 32.837812 
L 173.121995 32.837812 
L 179.660126 32.837812 
L 186.198258 32.837812 
L 192.736389 32.837812 
L 199.27452 32.837812 
L 205.812652 32.837812 
L 212.350783 32.837812 
L 218.888914 32.837812 
L 225.427045 32.837812 
L 231.965177 32.837812 
L 238.503308 32.837812 
L 245.041439 32.837812 
L 251.579571 37.332171 
L 258.117702 37.332171 
L 264.655833 41.82653 
L 271.193965 41.82653 
L 277.732096 41.82653 
L 284.270227 41.82653 
L 290.808359 41.82653 
L 297.34649 41.82653 
L 303.884621 41.82653 
L 310.422753 41.82653 
L 316.960884 41.82653 
L 323.499015 41.82653 
L 330.037146 41.82653 
L 336.575278 50.815248 
L 343.113409 50.815248 
L 349.65154 55.309607 
L 356.189672 68.792684 
L 362.727803 73.287043 
L 369.265934 77.781402 
L 375.804066 82.275761 
L 382.342197 86.77012 
L 388.880328 91.264479 
L 395.41846 95.758838 
L 401.956591 95.758838 
L 408.494722 95.758838 
L 415.032854 95.758838 
L 421.570985 109.241915 
L 428.109116 113.736274 
L 434.647247 113.736274 
L 441.185379 113.736274 
L 447.72351 118.230633 
L 454.261641 118.230633 
L 460.799773 127.219351 
L 467.337904 131.71371 
L 473.876035 136.208069 
L 480.414167 136.208069 
L 486.952298 140.702428 
L 493.490429 145.196787 
L 500.028561 145.196787 
L 506.566692 154.185505 
L 513.104823 154.185505 
L 519.642955 158.679864 
L 526.181086 158.679864 
L 532.719217 163.174223 
L 539.257348 176.6573 
L 545.79548 190.140377 
L 552.333611 199.129095 
L 558.871742 217.10653 
L 565.409874 226.095248 
L 571.948005 235.083966 
L 578.486136 248.567043 
L 585.024268 262.05012 
L 591.562399 266.544479 
L 598.10053 284.521915 
L 604.638662 298.004992 
L 611.176793 311.488069 
L 617.714924 320.476787 
L 624.253056 324.971146 
L 630.791187 333.959864 
L 637.329318 338.454223 
L 643.867449 351.9373 
L 650.405581 351.9373 
L 656.943712 351.9373 
L 663.481843 369.914736 
L 670.019975 378.903454 
L 676.558106 378.903454 
L 683.096237 378.903454 
L 689.634369 383.397812 
L 696.1725 383.397812 
" clip-path="url(#p7238537fca)" style="fill: none; stroke: #de8f05; stroke-width: 2; stroke-linecap: square"/>
   </g>
   <g id="line2d_27">
    <path d="M 48.8975 186.68069 
L 55.435631 186.68069 
L 61.973763 185.97052 
L 68.511894 185.255204 
L 75.050025 185.255204 
L 81.588157 183.808907 
L 88.126288 183.077812 
L 94.664419 180.099076 
L 101.202551 179.340499 
L 107.740682 178.576239 
L 114.278813 177.806234 
L 120.816944 176.248722 
L 127.355076 172.249704 
L 133.893207 169.775312 
L 140.431338 163.769861 
L 146.96947 162.884264 
L 153.507601 159.269288 
L 160.045732 157.416986 
L 166.583864 153.618989 
L 173.121995 150.685642 
L 179.660126 147.676433 
L 186.198258 145.626682 
L 192.736389 139.257812 
L 199.27452 134.818903 
L 205.812652 134.818903 
L 212.350783 131.382329 
L 218.888914 126.649643 
L 225.427045 124.216012 
L 231.965177 124.216012 
L 238.503308 120.477812 
L 245.041439 119.207668 
L 251.579571 110.740035 
L 258.117702 106.5453 
L 264.655833 107.309108 
L 271.193965 101.465961 
L 277.732096 101.465961 
L 284.270227 96.918673 
L 290.808359 90.622428 
L 297.34649 90.622428 
L 303.884621 89.004884 
L 310.422753 85.715578 
L 316.960884 80.641449 
L 323.499015 80.641449 
L 330.037146 78.911412 
L 336.575278 76.398523 
L 343.113409 72.721884 
L 349.65154 71.31391 
L 356.189672 76.657812 
L 362.727803 77.212496 
L 369.265934 75.809683 
L 375.804066 78.365085 
L 382.342197 80.953891 
L 388.880328 79.579146 
L 395.41846 82.245598 
L 401.956591 80.210785 
L 408.494722 80.210785 
L 415.032854 80.210785 
L 421.570985 88.443881 
L 428.109116 89.221589 
L 434.647247 89.221589 
L 441.185379 89.221589 
L 447.72351 90.021359 
L 454.261641 90.021359 
L 460.799773 95.888172 
L 467.337904 98.885349 
L 473.876035 101.92628 
L 480.414167 99.856636 
L 486.952298 100.856917 
L 493.490429 104.004128 
L 500.028561 104.004128 
L 506.566692 110.442698 
L 513.104823 110.442698 
L 519.642955 111.645875 
L 526.181086 111.645875 
L 532.719217 115.000312 
L 539.257348 125.385652 
L 545.79548 136.281747 
L 552.333611 143.848479 
L 558.871742 159.764709 
L 565.409874 168.141672 
L 571.948005 174.956731 
L 578.486136 188.642257 
L 585.024268 203.109812 
L 591.562399 208.117812 
L 598.10053 229.151412 
L 604.638662 246.065029 
L 611.176793 264.058238 
L 617.714924 276.705639 
L 624.253056 283.237812 
L 630.791187 296.742532 
L 637.329318 303.725085 
L 643.867449 325.658518 
L 650.405581 325.658518 
L 656.943712 325.658518 
L 663.481843 357.430405 
L 670.019975 374.522876 
L 676.558106 374.522876 
L 683.096237 374.522876 
" clip-path="url(#p7238537fca)" style="fill: none; stroke: #029e73; stroke-width: 2; stroke-linecap: square"/>
   </g>
   <g id="line2d_28">
    <path d="M 349.65154 383.397812 
L 349.65154 32.837812 
" clip-path="url(#p7238537fca)" style="fill: none; stroke-dasharray: 5.92,2.56; stroke-dashoffset: 0; stroke: #808080; stroke-width: 1.6"/>
   </g>
   <g id="patch_3">
    <path d="M 48.8975 383.397812 
L 48.8975 32.837812 
" style="fill: none; stroke: #000000; stroke-width: 0.8; stroke-linejoin: miter; stroke-linecap: square"/>
   </g>
   <g id="patch_4">
    <path d="M 696.1725 383.397812 
L 696.1725 32.837812 
" style="fill: none; stroke: #000000; stroke-width: 0.8; stroke-linejoin: miter; stroke-linecap: square"/>
   </g>
   <g id="patch_5">
    <path d="M 48.8975 383.397812 
L 696.1725 383.397812 
" style="fill: none; stroke: #000000; stroke-width: 0.8; stroke-linejoin: miter; stroke-linecap: square"/>
   </g>
   <g id="patch_6">
    <path d="M 48.8975 32.837812 
L 696.1725 32.837812 
" style="fill: none; stroke: #000000; stroke-width: 0.8; stroke-linejoin: miter; stroke-linecap: square"/>
   </g>
   <g id="patch_7">
    <path d="M 354.672398 70.153574 
Q 353.136476 70.508531 352.689878 70.611741 
" style="fill: none; stroke: #000000; stroke-linecap: round"/>
    <path d="M 357.907017 71.869301 
L 352.689878 70.611741 
L 356.826209 67.192565 
" style="fill: none; stroke: #000000; stroke-linecap: round"/>
   </g>
   <g id="text_15">
    <g id="patch_8">
     <path d="M 359.65154 69.809535 
L 454.84904 69.809535 
Q 460.84904 69.809535 460.84904 63.809535 
L 460.84904 52.195785 
Q 460.84904 46.195785 454.84904 46.195785 
L 359.65154 46.195785 
Q 353.65154 46.195785 353.65154 52.195785 
L 353.65154 63.809535 
Q 353.65154 69.809535 359.65154 69.809535 
z
" style="fill: #ffffff; opacity: 0.7; stroke: #000000; stroke-linejoin: miter"/>
    </g>
    <!-- Max F1 = 0.890 -->
    <g transform="translate(359.65154 61.31391) scale(0.12 -0.12)">
     <defs>
      <path id="DejaVuSans-78" d="M 3513 3500 
L 2247 1797 
L 3578 0 
L 2900 0 
L 1881 1375 
L 863 0 
L 184 0 
L 1544 1831 
L 300 3500 
L 978 3500 
L 1906 2253 
L 2834 3500 
L 3513 3500 
z
" transform="scale(0.015625)"/>
      <path id="DejaVuSans-46" d="M 628 4666 
L 3309 4666 
L 3309 4134 
L 1259 4134 
L 1259 2759 
L 3109 2759 
L 3109 2228 
L 1259 2228 
L 1259 0 
L 628 0 
L 628 4666 
z
" transform="scale(0.015625)"/>
      <path id="DejaVuSans-3d" d="M 678 2906 
L 4684 2906 
L 4684 2381 
L 678 2381 
L 678 2906 
z
M 678 1631 
L 4684 1631 
L 4684 1100 
L 678 1100 
L 678 1631 
z
" transform="scale(0.015625)"/>
      <path id="DejaVuSans-39" d="M 703 97 
L 703 672 
Q 941 559 1184 500 
Q 1428 441 1663 441 
Q 2288 441 2617 861 
Q 2947 1281 2994 2138 
Q 2813 1869 2534 1725 
Q 2256 1581 1919 1581 
Q 1219 1581 811 2004 
Q 403 2428 403 3163 
Q 403 3881 828 4315 
Q 1253 4750 1959 4750 
Q 2769 4750 3195 4129 
Q 3622 3509 3622 2328 
Q 3622 1225 3098 567 
Q 2575 -91 1691 -91 
Q 1453 -91 1209 -44 
Q 966 3 703 97 
z
M 1959 2075 
Q 2384 2075 2632 2365 
Q 2881 2656 2881 3163 
Q 2881 3666 2632 3958 
Q 2384 4250 1959 4250 
Q 1534 4250 1286 3958 
Q 1038 3666 1038 3163 
Q 1038 2656 1286 2365 
Q 1534 2075 1959 2075 
z
" transform="scale(0.015625)"/>
     </defs>
     <use xlink:href="#DejaVuSans-4d"/>
     <use xlink:href="#DejaVuSans-61" x="86.279297"/>
     <use xlink:href="#DejaVuSans-78" x="147.558594"/>
     <use xlink:href="#DejaVuSans-20" x="206.738281"/>
     <use xlink:href="#DejaVuSans-46" x="238.525391"/>
     <use xlink:href="#DejaVuSans-31" x="296.044922"/>
     <use xlink:href="#DejaVuSans-20" x="359.667969"/>
     <use xlink:href="#DejaVuSans-3d" x="391.455078"/>
     <use xlink:href="#DejaVuSans-20" x="475.244141"/>
     <use xlink:href="#DejaVuSans-30" x="507.03125"/>
     <use xlink:href="#DejaVuSans-2e" x="570.654297"/>
     <use xlink:href="#DejaVuSans-38" x="602.441406"/>
     <use xlink:href="#DejaVuSans-39" x="666.064453"/>
     <use xlink:href="#DejaVuSans-30" x="729.6875"/>
    </g>
   </g>
   <g id="text_16">
    <!-- Threshold Analysis -->
    <g transform="translate(306.976719 17.837812) scale(0.14 -0.14)">
     <defs>
      <path id="DejaVuSans-41" d="M 2188 4044 
L 1331 1722 
L 3047 1722 
L 2188 4044 
z
M 1831 4666 
L 2547 4666 
L 4325 0 
L 3669 0 
L 3244 1197 
L 1141 1197 
L 716 0 
L 50 0 
L 1831 4666 
z
" transform="scale(0.015625)"/>
      <path id="DejaVuSans-6e" d="M 3513 2113 
L 3513 0 
L 2938 0 
L 2938 2094 
Q 2938 2591 2744 2837 
Q 2550 3084 2163 3084 
Q 1697 3084 1428 2787 
Q 1159 2491 1159 1978 
L 1159 0 
L 581 0 
L 581 3500 
L 1159 3500 
L 1159 2956 
Q 1366 3272 1645 3428 
Q 1925 3584 2291 3584 
Q 2894 3584 3203 3211 
Q 3513 2838 3513 2113 
z
" transform="scale(0.015625)"/>
      <path id="DejaVuSans-79" d="M 2059 -325 
Q 1816 -950 1584 -1140 
Q 1353 -1331 966 -1331 
L 506 -1331 
L 506 -850 
L 844 -850 
Q 1081 -850 1212 -737 
Q 1344 -625 1503 -206 
L 1606 56 
L 191 3500 
L 800 3500 
L 1894 763 
L 2988 3500 
L 3597 3500 
L 2059 -325 
z
" transform="scale(0.015625)"/>
     </defs>
     <use xlink:href="#DejaVuSans-54"/>
     <use xlink:href="#DejaVuSans-68" x="61.083984"/>
     <use xlink:href="#DejaVuSans-72" x="124.462891"/>
     <use xlink:href="#DejaVuSans-65" x="163.326172"/>
     <use xlink:href="#DejaVuSans-73" x="224.849609"/>
     <use xlink:href="#DejaVuSans-68" x="276.949219"/>
     <use xlink:href="#DejaVuSans-6f" x="340.328125"/>
     <use xlink:href="#DejaVuSans-6c" x="401.509766"/>
     <use xlink:href="#DejaVuSans-64" x="429.292969"/>
     <use xlink:href="#DejaVuSans-20" x="492.769531"/>
     <use xlink:href="#DejaVuSans-41" x="524.556641"/>
     <use xlink:href="#DejaVuSans-6e" x="592.964844"/>
     <use xlink:href="#DejaVuSans-61" x="656.34375"/>
     <use xlink:href="#DejaVuSans-6c" x="717.623047"/>
     <use xlink:href="#DejaVuSans-79" x="745.40625"/>
     <use xlink:href="#DejaVuSans-73" x="804.585938"/>
     <use xlink:href="#DejaVuSans-69" x="856.685547"/>
     <use xlink:href="#DejaVuSans-73" x="884.46875"/>
    </g>
   </g>
   <g id="legend_1">
    <g id="patch_9">
     <path d="M 57.2975 377.397812 
L 258.15875 377.397812 
Q 260.55875 377.397812 260.55875 374.997812 
L 260.55875 305.742812 
Q 260.55875 303.342812 258.15875 303.342812 
L 57.2975 303.342812 
Q 54.8975 303.342812 54.8975 305.742812 
L 54.8975 374.997812 
Q 54.8975 377.397812 57.2975 377.397812 
z
" style="fill: #ffffff; opacity: 0.8; stroke: #cccccc; stroke-linejoin: miter"/>
    </g>
    <g id="line2d_29">
     <path d="M 59.6975 313.060937 
L 71.6975 313.060937 
L 83.6975 313.060937 
" style="fill: none; stroke: #0173b2; stroke-width: 2; stroke-linecap: square"/>
    </g>
    <g id="text_17">
     <!-- Precision -->
     <g transform="translate(93.2975 317.260937) scale(0.12 -0.12)">
      <defs>
       <path id="DejaVuSans-50" d="M 1259 4147 
L 1259 2394 
L 2053 2394 
Q 2494 2394 2734 2622 
Q 2975 2850 2975 3272 
Q 2975 3691 2734 3919 
Q 2494 4147 2053 4147 
L 1259 4147 
z
M 628 4666 
L 2053 4666 
Q 2838 4666 3239 4311 
Q 3641 3956 3641 3272 
Q 3641 2581 3239 2228 
Q 2838 1875 2053 1875 
L 1259 1875 
L 1259 0 
L 628 0 
L 628 4666 
z
" transform="scale(0.015625)"/>
      </defs>
      <use xlink:href="#DejaVuSans-50"/>
      <use xlink:href="#DejaVuSans-72" x="58.552734"/>
      <use xlink:href="#DejaVuSans-65" x="97.416016"/>
      <use xlink:href="#DejaVuSans-63" x="158.939453"/>
      <use xlink:href="#DejaVuSans-69" x="213.919922"/>
      <use xlink:href="#DejaVuSans-73" x="241.703125"/>
      <use xlink:href="#DejaVuSans-69" x="293.802734"/>
      <use xlink:href="#DejaVuSans-6f" x="321.585938"/>
      <use xlink:href="#DejaVuSans-6e" x="382.767578"/>
     </g>
    </g>
    <g id="line2d_30">
     <path d="M 59.6975 330.674687 
L 71.6975 330.674687 
L 83.6975 330.674687 
" style="fill: none; stroke: #de8f05; stroke-width: 2; stroke-linecap: square"/>
    </g>
    <g id="text_18">
     <!-- Recall -->
     <g transform="translate(93.2975 334.874687) scale(0.12 -0.12)">
      <defs>
       <path id="DejaVuSans-52" d="M 2841 2188 
Q 3044 2119 3236 1894 
Q 3428 1669 3622 1275 
L 4263 0 
L 3584 0 
L 2988 1197 
Q 2756 1666 2539 1819 
Q 2322 1972 1947 1972 
L 1259 1972 
L 1259 0 
L 628 0 
L 628 4666 
L 2053 4666 
Q 2853 4666 3247 4331 
Q 3641 3997 3641 3322 
Q 3641 2881 3436 2590 
Q 3231 2300 2841 2188 
z
M 1259 4147 
L 1259 2491 
L 2053 2491 
Q 2509 2491 2742 2702 
Q 2975 2913 2975 3322 
Q 2975 3731 2742 3939 
Q 2509 4147 2053 4147 
L 1259 4147 
z
" transform="scale(0.015625)"/>
      </defs>
      <use xlink:href="#DejaVuSans-52"/>
      <use xlink:href="#DejaVuSans-65" x="64.982422"/>
      <use xlink:href="#DejaVuSans-63" x="126.505859"/>
      <use xlink:href="#DejaVuSans-61" x="181.486328"/>
      <use xlink:href="#DejaVuSans-6c" x="242.765625"/>
      <use xlink:href="#DejaVuSans-6c" x="270.548828"/>
     </g>
    </g>
    <g id="line2d_31">
     <path d="M 59.6975 348.288437 
L 71.6975 348.288437 
L 83.6975 348.288437 
" style="fill: none; stroke: #029e73; stroke-width: 2; stroke-linecap: square"/>
    </g>
    <g id="text_19">
     <!-- F1 Score -->
     <g transform="translate(93.2975 352.488437) scale(0.12 -0.12)">
      <defs>
       <path id="DejaVuSans-53" d="M 3425 4513 
L 3425 3897 
Q 3066 4069 2747 4153 
Q 2428 4238 2131 4238 
Q 1616 4238 1336 4038 
Q 1056 3838 1056 3469 
Q 1056 3159 1242 3001 
Q 1428 2844 1947 2747 
L 2328 2669 
Q 3034 2534 3370 2195 
Q 3706 1856 3706 1288 
Q 3706 609 3251 259 
Q 2797 -91 1919 -91 
Q 1588 -91 1214 -16 
Q 841 59 441 206 
L 441 856 
Q 825 641 1194 531 
Q 1563 422 1919 422 
Q 2459 422 2753 634 
Q 3047 847 3047 1241 
Q 3047 1584 2836 1778 
Q 2625 1972 2144 2069 
L 1759 2144 
Q 1053 2284 737 2584 
Q 422 2884 422 3419 
Q 422 4038 858 4394 
Q 1294 4750 2059 4750 
Q 2388 4750 2728 4690 
Q 3069 4631 3425 4513 
z
" transform="scale(0.015625)"/>
      </defs>
      <use xlink:href="#DejaVuSans-46"/>
      <use xlink:href="#DejaVuSans-31" x="57.519531"/>
      <use xlink:href="#DejaVuSans-20" x="121.142578"/>
      <use xlink:href="#DejaVuSans-53" x="152.929688"/>
      <use xlink:href="#DejaVuSans-63" x="216.40625"/>
      <use xlink:href="#DejaVuSans-6f" x="271.386719"/>
      <use xlink:href="#DejaVuSans-72" x="332.568359"/>
      <use xlink:href="#DejaVuSans-65" x="371.431641"/>
     </g>
    </g>
    <g id="line2d_32">
     <path d="M 59.6975 365.902187 
L 71.6975 365.902187 
L 83.6975 365.902187 
" style="fill: none; stroke-dasharray: 5.92,2.56; stroke-dashoffset: 0; stroke: #808080; stroke-width: 1.6"/>
    </g>
    <g id="text_20">
     <!-- Optimal Threshold = 0.465 -->
     <g transform="translate(93.2975 370.102187) scale(0.12 -0.12)">
      <defs>
       <path id="DejaVuSans-4f" d="M 2522 4238 
Q 1834 4238 1429 3725 
Q 1025 3213 1025 2328 
Q 1025 1447 1429 934 
Q 1834 422 2522 422 
Q 3209 422 3611 934 
Q 4013 1447 4013 2328 
Q 4013 3213 3611 3725 
Q 3209 4238 2522 4238 
z
M 2522 4750 
Q 3503 4750 4090 4092 
Q 4678 3434 4678 2328 
Q 4678 1225 4090 567 
Q 3503 -91 2522 -91 
Q 1538 -91 948 565 
Q 359 1222 359 2328 
Q 359 3434 948 4092 
Q 1538 4750 2522 4750 
z
" transform="scale(0.015625)"/>
       <path id="DejaVuSans-70" d="M 1159 525 
L 1159 -1331 
L 581 -1331 
L 581 3500 
L 1159 3500 
L 1159 2969 
Q 1341 3281 1617 3432 
Q 1894 3584 2278 3584 
Q 2916 3584 3314 3078 
Q 3713 2572 3713 1747 
Q 3713 922 3314 415 
Q 2916 -91 2278 -91 
Q 1894 -91 1617 61 
Q 1341 213 1159 525 
z
M 3116 1747 
Q 3116 2381 2855 2742 
Q 2594 3103 2138 3103 
Q 1681 3103 1420 2742 
Q 1159 2381 1159 1747 
Q 1159 1113 1420 752 
Q 1681 391 2138 391 
Q 2594 391 2855 752 
Q 3116 1113 3116 1747 
z
" transform="scale(0.015625)"/>
       <path id="DejaVuSans-6d" d="M 3328 2828 
Q 3544 3216 3844 3400 
Q 4144 3584 4550 3584 
Q 5097 3584 5394 3201 
Q 5691 2819 5691 2113 
L 5691 0 
L 5113 0 
L 5113 2094 
Q 5113 2597 4934 2840 
Q 4756 3084 4391 3084 
Q 3944 3084 3684 2787 
Q 3425 2491 3425 1978 
L 3425 0 
L 2847 0 
L 2847 2094 
Q 2847 2600 2669 2842 
Q 2491 3084 2119 3084 
Q 1678 3084 1418 2786 
Q 1159 2488 1159 1978 
L 1159 0 
L 581 0 
L 581 3500 
L 1159 3500 
L 1159 2956 
Q 1356 3278 1631 3431 
Q 1906 3584 2284 3584 
Q 2666 3584 2933 3390 
Q 3200 3197 3328 2828 
z
" transform="scale(0.015625)"/>
       <path id="DejaVuSans-35" d="M 691 4666 
L 3169 4666 
L 3169 4134 
L 1269 4134 
L 1269 2991 
Q 1406 3038 1543 3061 
Q 1681 3084 1819 3084 
Q 2600 3084 3056 2656 
Q 3513 2228 3513 1497 
Q 3513 744 3044 326 
Q 2575 -91 1722 -91 
Q 1428 -91 1123 -41 
Q 819 9 494 109 
L 494 744 
Q 775 591 1075 516 
Q 1375 441 1709 441 
Q 2250 441 2565 725 
Q 2881 1009 2881 1497 
Q 2881 1984 2565 2268 
Q 2250 2553 1709 2553 
Q 1456 2553 1204 2497 
Q 953 2441 691 2322 
L 691 4666 
z
" transform="scale(0.015625)"/>
      </defs>
      <use xlink:href="#DejaVuSans-4f"/>
      <use xlink:href="#DejaVuSans-70" x="78.710938"/>
      <use xlink:href="#DejaVuSans-74" x="142.1875"/>
      <use xlink:href="#DejaVuSans-69" x="181.396484"/>
      <use xlink:href="#DejaVuSans-6d" x="209.179688"/>
      <use xlink:href="#DejaVuSans-61" x="306.591797"/>
      <use xlink:href="#DejaVuSans-6c" x="367.871094"/>
      <use xlink:href="#DejaVuSans-20" x="395.654297"/>
      <use xlink:href="#DejaVuSans-54" x="427.441406"/>
      <use xlink:href="#DejaVuSans-68" x="488.525391"/>
      <use xlink:href="#DejaVuSans-72" x="551.904297"/>
      <use xlink:href="#DejaVuSans-65" x="590.767578"/>
      <use xlink:href="#DejaVuSans-73" x="652.291016"/>
      <use xlink:href="#DejaVuSans-68" x="704.390625"/>
      <use xlink:href="#DejaVuSans-6f" x="767.769531"/>
      <use xlink:href="#DejaVuSans-6c" x="828.951172"/>
      <use xlink:href="#DejaVuSans-64" x="856.734375"/>
      <use xlink:href="#DejaVuSans-20" x="920.210938"/>
      <use xlink:href="#DejaVuSans-3d" x="951.998047"/>
      <use xlink:href="#DejaVuSans-20" x="1035.787109"/>
      <use xlink:href="#DejaVuSans-30" x="1067.574219"/>
      <use xlink:href="#DejaVuSans-2e" x="1131.197266"/>
      <use xlink:href="#DejaVuSans-34" x="1162.984375"/>
      <use xlink:href="#DejaVuSans-36" x="1226.607422"/>
      <use xlink:href="#DejaVuSans-35" x="1290.230469"/>
     </g>
    </g>
   </g>
  </g>
 </g>
 <defs>
  <clipPath id="p7238537fca">
   <rect x="48.8975" y="32.837812" width="647.275" height="350.56"/>
  </clipPath>
 </defs>
</svg>
